<?xml version="1.0" encoding="utf-8"?>
<!-- Generator: Adobe Illustrator 16.0.0, SVG Export Plug-In . SVG Version: 6.00 Build 0)  -->
<!DOCTYPE svg PUBLIC "-//W3C//DTD SVG 1.1//EN" "http://www.w3.org/Graphics/SVG/1.1/DTD/svg11.dtd">
<svg version="1.1" id="Camada_1" xmlns="http://www.w3.org/2000/svg" xmlns:xlink="http://www.w3.org/1999/xlink" x="0px" y="0px"
	 width="200px" height="200px" viewBox="0 0 200 200" enable-background="new 0 0 200 200" xml:space="preserve">
<path fill-rule="evenodd" clip-rule="evenodd" fill="#F7FAF9" d="M198,186.14c0,12.194,0,12.194-12.185,12.194H14.221
	c-12.184,0-12.184,0-12.184-12.194V14.411c0-12.194,0-12.194,12.184-12.194h171.595C198,2.217,198,2.217,198,14.411V186.14z"/>
<path fill-rule="evenodd" clip-rule="evenodd" fill="#F7FAF9" d="M78.166,130.701c-0.001,13.869-0.136,27.74,0.084,41.606
	c0.063,3.988-0.599,5.502-4.724,5.469c-14.903-0.117-14.904,0.07-14.905-16.183c0-20.241,0.014-40.483-0.012-60.725
	c-0.01-7.961-1.532-9.596-8.795-9.622c-6.411-0.021-12.822,0.049-19.232-0.019c-5.218-0.055-7.495-2.182-7.678-7.587
	c-0.203-5.99-0.093-11.994-0.031-17.99c0.039-3.802,1.7-6.557,5.207-7.399c3.4-0.817,5.766-0.581,5.725,4.723
	c-0.123,15.985,0.096,15.986,14.751,15.986c6.931,0,13.862-0.056,20.792,0.02c6.35,0.07,8.789,2.72,8.808,9.549
	C78.194,102.588,78.167,116.645,78.166,130.701z"/>
<path fill-rule="evenodd" clip-rule="evenodd" fill="#028067" d="M100.194,5.755c28.068,0.001,56.136-0.006,84.204,0.006
	c7.825,0.004,10.268,2.561,10.271,11.005c0.025,55.664,0.024,111.328-0.001,166.991c-0.003,8.351-2.591,11.086-10.333,11.1
	c-15.94,0.027-31.881-0.108-47.818,0.093c-3.619,0.047-4.659-1.047-4.646-4.996c0.13-38.421,0.063-76.842,0.089-115.262
	c0.005-7.138,2.09-9.55,8.653-9.678c8.314-0.163,16.632-0.001,24.949-0.055c6.647-0.043,8.97-2.621,9.003-9.894
	c0.032-6.748,0.046-13.496-0.006-20.241c-0.05-6.574-2.484-9.461-8.383-9.471c-35.171-0.06-70.343-0.06-105.514-0.001
	c-5.661,0.009-8.254,2.891-8.33,8.969c-0.091,7.308-0.102,14.62,0.005,21.927c0.085,5.832,2.616,8.61,8.01,8.69
	c8.315,0.125,16.633-0.025,24.949,0.049c7.574,0.069,9.636,2.303,9.639,10.31c0.014,38.047-0.07,76.094,0.107,114.139
	c0.021,4.549-1.224,5.56-5.231,5.528c-24.602-0.194-49.205-0.083-73.808-0.106c-7.847-0.008-10.112-2.519-10.114-11.144
	c-0.009-55.664-0.007-111.327,0-166.991C5.891,7.939,7.897,5.763,15.991,5.759C44.059,5.749,72.126,5.755,100.194,5.755z
	 M78.167,130.701c0-14.057,0.027-28.113-0.011-42.171c-0.019-6.829-2.458-9.479-8.808-9.549c-6.93-0.076-13.861-0.02-20.792-0.02
	c-14.655,0-14.874-0.001-14.751-15.986c0.041-5.304-2.325-5.541-5.725-4.723c-3.507,0.843-5.168,3.597-5.207,7.399
	c-0.062,5.996-0.172,12,0.031,17.99c0.183,5.405,2.459,7.532,7.678,7.587c6.41,0.067,12.821-0.003,19.232,0.019
	c7.263,0.026,8.785,1.661,8.795,9.622c0.026,20.241,0.012,40.483,0.012,60.725c0.001,16.253,0.001,16.065,14.905,16.183
	c4.125,0.033,4.787-1.48,4.724-5.469C78.03,158.441,78.165,144.57,78.167,130.701z"/>
</svg>
